<svg xmlns="http://www.w3.org/2000/svg" width="746" height="119" viewBox="0 0 746 119" fill="none"><path d="M68.3994 7.25183C68.3994 11.5062 65.2086 14.1556 60.1129 14.1556H56.2646V19.4156H51.8458V0.328735H60.1129C65.2182 0.328735 68.3994 2.97807 68.3994 7.25183ZM63.9322 7.25183C63.9322 5.15363 62.5689 3.92565 59.8712 3.92565H56.2743V10.549H59.8712C62.5689 10.549 63.9322 9.32102 63.9322 7.25183Z" fill="white"></path><path d="M104.968 9.87217C104.968 4.1964 109.387 0 115.411 0C121.435 0 125.853 4.17706 125.853 9.87217C125.853 15.5673 121.406 19.7443 115.411 19.7443C109.416 19.7443 104.968 15.5479 104.968 9.87217ZM121.386 9.87217C121.386 6.24625 118.824 3.76129 115.411 3.76129C111.997 3.76129 109.435 6.24625 109.435 9.87217C109.435 13.4981 111.997 15.9831 115.411 15.9831C118.824 15.9831 121.386 13.4981 121.386 9.87217Z" fill="white"></path><path d="M175.707 19.4156L172.023 14.0976H167.962V19.4156H163.543V0.328735H171.811C176.916 0.328735 180.097 2.97807 180.097 7.25183C180.097 10.1139 178.656 12.2121 176.171 13.2757L180.455 19.4156H175.707ZM171.559 3.92565H167.962V10.578H171.559C174.257 10.578 175.62 9.32102 175.62 7.25183C175.62 5.18263 174.257 3.92565 171.559 3.92565Z" fill="white"></path><path d="M221.626 3.92565H215.515V0.328735H232.156V3.92565H226.045V19.4156H221.626V3.92565Z" fill="white"></path><path d="M267.409 9.87217C267.409 4.1964 271.828 0 277.852 0C283.876 0 288.295 4.17706 288.295 9.87217C288.295 15.5673 283.847 19.7443 277.852 19.7443C271.857 19.7443 267.409 15.5479 267.409 9.87217ZM283.827 9.87217C283.827 6.24625 281.265 3.76129 277.852 3.76129C274.439 3.76129 271.876 6.24625 271.876 9.87217C271.876 13.4981 274.439 15.9831 277.852 15.9831C281.265 15.9831 283.827 13.4981 283.827 9.87217Z" fill="white"></path><path d="M213.253 75.3128C215.061 76.3281 216.685 77.237 219.064 77.2757C222.999 74.9647 226.238 71.7159 228.559 67.7999C227.099 68.6121 225.387 69.289 223.318 69.7531C217.033 71.1454 213.523 69.1729 210.419 67.4325C207.499 65.7887 204.976 64.3674 200.093 65.46C195.21 66.5429 193.063 68.9989 190.578 71.8416C189.447 73.1373 188.248 74.5006 186.759 75.7479C188.693 77.1693 190.84 78.3489 193.17 79.2385C195.239 76.9082 197.734 74.4426 202.5 73.379C207.731 72.2187 210.661 73.8625 213.243 75.3128H213.253Z" fill="white"></path><path d="M209.559 54.8723C206.175 52.9674 203.255 51.3237 197.598 52.5807C191.951 53.8377 189.457 56.6804 186.585 59.9776C184.564 62.2885 182.36 64.8121 178.985 66.7169C180.281 69.1439 181.915 71.3388 183.839 73.2436C185.338 72.122 186.527 70.778 187.794 69.3179C190.433 66.3012 193.421 62.8783 199.706 61.4763C205.991 60.0839 209.501 62.0564 212.605 63.7969C215.525 65.4406 218.048 66.862 222.931 65.7694C227.282 64.8025 229.458 62.7429 231.643 60.2966C232.156 58.2855 232.484 56.1873 232.591 53.9924C230.502 55.5008 227.921 56.7771 224.498 57.5409C217.226 59.1557 213.156 56.8738 209.559 54.8529V54.8723Z" fill="white"></path><path d="M211.435 78.3295C208.998 76.9565 206.9 75.7769 202.829 76.6858C199.793 77.3626 198.024 78.6776 196.467 80.2827C198.865 80.8822 201.408 81.2013 204.077 81.2013C207.596 81.2013 210.903 80.6405 213.929 79.6155C213.03 79.2191 212.218 78.7646 211.435 78.3295Z" fill="white"></path><path d="M157.848 66.3689C157.607 66.2335 157.365 66.0981 157.123 65.9628V71.0584C162.151 70.4686 165.216 72.1897 167.962 73.7367C169.761 74.7423 171.404 75.6706 173.541 75.98V68.8828C173.29 68.9409 173.039 69.0085 172.787 69.0666C165.516 70.6813 161.445 68.3994 157.848 66.3785V66.3689Z" fill="white"></path><path d="M173.541 80.1087C170.244 79.8669 167.914 78.5519 165.777 77.353C163.205 75.9123 160.952 74.636 157.123 75.0904V80.1667H173.541V80.1087Z" fill="white"></path><path d="M134.875 71.4741C134.875 71.4741 134.836 71.5128 134.817 71.5418L139.197 80.1763H142.339C142.61 79.8766 142.881 79.5672 143.151 79.2481C145.414 76.6568 147.938 73.7754 152.579 72.122L147.851 63.7388C147.232 63.8065 146.584 63.9225 145.897 64.0772C140.251 65.3342 137.756 68.177 134.884 71.4741H134.875Z" fill="white"></path><path d="M147.358 80.1764H157.123L154.542 75.6125C151.167 76.5505 149.195 78.2039 147.358 80.1764Z" fill="white"></path><path d="M38.2317 60.6641L51.8748 69.6274C46.8759 76.6858 38.5508 81.211 28.5529 81.211C11.893 81.2013 0 68.8248 0 52.4067C0 35.9885 11.893 23.699 28.5529 23.699C38.5508 23.699 46.8759 28.1372 51.8748 35.2826L38.2317 44.2459C36.1722 41.3935 32.8363 39.5661 28.5529 39.5661C20.9336 39.5661 16.4182 45.1935 16.4182 52.4163C16.4182 59.6392 20.9433 65.2666 28.5529 65.2666C32.8363 65.2666 36.1722 63.5262 38.2317 60.6641Z" fill="white"></path><path d="M86.297 71.2904H69.3277L66.8717 80.1763H49.0999L67.6646 24.6562H87.9697L106.534 80.1763H88.7626L86.3066 71.2904H86.297ZM83.0481 59.5521L77.8172 40.591L72.5862 59.5521H83.0578H83.0481Z" fill="white"></path><path d="M271.857 60.6641L285.5 69.6274C280.501 76.6858 272.176 81.211 262.178 81.211C245.518 81.211 233.625 68.8345 233.625 52.4163C233.625 35.9982 245.518 23.699 262.178 23.699C272.176 23.699 280.501 28.1372 285.5 35.2826L271.857 44.2459C269.797 41.3935 266.462 39.5661 262.178 39.5661C254.559 39.5661 250.043 45.1935 250.043 52.4163C250.043 59.6392 254.569 65.2666 262.178 65.2666C266.462 65.2666 269.797 63.5262 271.857 60.6641Z" fill="white"></path><path d="M319.922 71.2904H302.953L300.497 80.1763H282.725L301.29 24.6562H321.595L340.16 80.1763H322.388L319.932 71.2904H319.922ZM316.674 59.5521L311.443 40.591L306.212 59.5521H316.683H316.674Z" fill="white"></path><path d="M183.356 57.0575C186.411 53.5573 189.873 49.593 197.153 47.9782C204.425 46.3635 208.495 48.6454 212.092 50.6662C215.476 52.5711 218.396 54.2148 224.053 52.9578C227.95 52.0876 230.338 50.4729 232.388 48.4714C230.638 34.1224 219.363 23.6894 204.076 23.6894C187.417 23.6894 175.524 36.0659 175.524 52.4067C175.524 56.0423 176.113 59.4845 177.196 62.6269C179.749 61.1766 181.47 59.2137 183.356 57.0575Z" fill="white"></path><path d="M160.382 62.1725C163.766 64.0773 166.686 65.721 172.333 64.464C172.748 64.3674 173.145 64.2707 173.532 64.1546V24.6466H157.114V60.4707C158.283 60.9928 159.347 61.5923 160.372 62.1725H160.382Z" fill="white"></path><path d="M108.681 73.6594C112.065 75.5642 114.985 77.208 120.632 75.951C121.957 75.6609 123.098 75.2741 124.123 74.8197V62.3272H130.146L132.699 67.3648C135.532 64.203 138.984 60.9155 145.433 59.4845L145.298 59.2331C150.374 56.458 153.227 51.6138 153.227 44.5553C153.227 32.3432 145.772 24.6466 130.465 24.6466H107.704V73.1179C108.033 73.3016 108.352 73.4757 108.671 73.6594H108.681Z" fill="white"></path><path d="M477.555 46.6056C475.162 46.6056 472.851 46.3337 470.622 45.79C468.393 45.2462 466.557 44.5393 465.117 43.6693L468.216 36.655C469.575 37.4434 471.084 38.0823 472.743 38.5717C474.428 39.0339 476.059 39.265 477.636 39.265C478.561 39.265 479.281 39.2106 479.798 39.1018C480.342 38.9659 480.736 38.7892 480.98 38.5717C481.225 38.327 481.347 38.0415 481.347 37.7153C481.347 37.1987 481.062 36.7909 480.491 36.4918C479.92 36.1928 479.159 35.9481 478.207 35.7578C477.283 35.5403 476.263 35.3228 475.149 35.1053C474.034 34.8606 472.906 34.5479 471.764 34.1673C470.649 33.7867 469.616 33.2837 468.664 32.6584C467.74 32.0331 466.992 31.2175 466.422 30.2115C465.851 29.1784 465.565 27.9006 465.565 26.3781C465.565 24.6109 466.054 23.0068 467.033 21.5659C468.039 20.0978 469.521 18.9287 471.478 18.0587C473.463 17.1887 475.924 16.7537 478.86 16.7537C480.79 16.7537 482.693 16.9576 484.569 17.3654C486.445 17.7733 488.131 18.3986 489.626 19.2414L486.731 26.215C485.317 25.5081 483.944 24.9779 482.612 24.6245C481.307 24.2711 480.029 24.0943 478.778 24.0943C477.854 24.0943 477.12 24.1759 476.576 24.339C476.032 24.5022 475.638 24.7197 475.393 24.9915C475.176 25.2634 475.067 25.5625 475.067 25.8887C475.067 26.3781 475.353 26.7723 475.924 27.0714C476.494 27.3433 477.242 27.5743 478.167 27.7647C479.118 27.955 480.151 28.1589 481.266 28.3764C482.408 28.5939 483.536 28.8929 484.651 29.2736C485.765 29.6542 486.785 30.1572 487.709 30.7825C488.661 31.4078 489.422 32.2234 489.993 33.2293C490.564 34.2353 490.849 35.4859 490.849 36.9812C490.849 38.7212 490.347 40.3253 489.341 41.7934C488.362 43.2343 486.894 44.4034 484.936 45.3006C482.979 46.1706 480.518 46.6056 477.555 46.6056Z" fill="#FFA37B"></path><path d="M508.191 46.6056C503.814 46.6056 500.402 45.4229 497.955 43.0576C495.508 40.6923 494.284 37.3754 494.284 33.107V17.4062H503.909V32.8215C503.909 34.9965 504.303 36.5462 505.091 37.4706C505.88 38.3678 506.94 38.8164 508.272 38.8164C509.632 38.8164 510.692 38.3678 511.453 37.4706C512.242 36.5462 512.636 34.9965 512.636 32.8215V17.4062H522.097V33.107C522.097 37.3754 520.874 40.6923 518.427 43.0576C515.98 45.4229 512.568 46.6056 508.191 46.6056Z" fill="#FFA37B"></path><path d="M542.087 46.6056C539.804 46.6056 537.683 46.2522 535.725 45.5453C533.795 44.8112 532.109 43.7781 530.669 42.4459C529.255 41.1137 528.154 39.5368 527.365 37.7153C526.577 35.8937 526.183 33.8818 526.183 31.6797C526.183 29.4775 526.577 27.4656 527.365 25.644C528.154 23.8225 529.255 22.2456 530.669 20.9134C532.109 19.5812 533.795 18.5617 535.725 17.8548C537.683 17.1208 539.804 16.7537 542.087 16.7537C544.888 16.7537 547.362 17.2431 549.509 18.2218C551.684 19.2006 553.479 20.6143 554.893 22.4631L548.816 27.887C547.973 26.8267 547.035 26.0111 546.002 25.4401C544.996 24.842 543.854 24.5429 542.577 24.5429C541.571 24.5429 540.66 24.7061 539.844 25.0323C539.029 25.3586 538.322 25.8343 537.724 26.4597C537.153 27.085 536.704 27.8462 536.378 28.7434C536.052 29.6134 535.889 30.5922 535.889 31.6797C535.889 32.7672 536.052 33.7595 536.378 34.6567C536.704 35.5267 537.153 36.2743 537.724 36.8997C538.322 37.525 539.029 38.0008 539.844 38.327C540.66 38.6533 541.571 38.8164 542.577 38.8164C543.854 38.8164 544.996 38.5309 546.002 37.96C547.035 37.3618 547.973 36.5326 548.816 35.4723L554.893 40.8962C553.479 42.7178 551.684 44.1315 549.509 45.1375C547.362 46.1162 544.888 46.6056 542.087 46.6056Z" fill="#FFA37B"></path><path d="M567.296 28.0093H580.02V34.9422H567.296V28.0093ZM567.948 38.694H582.222V45.9531H558.487V17.4062H581.692V24.6653H567.948V38.694Z" fill="#FFA37B"></path><path d="M597.386 46.6056C594.994 46.6056 592.683 46.3337 590.454 45.79C588.224 45.2462 586.389 44.5393 584.948 43.6693L588.047 36.655C589.407 37.4434 590.916 38.0823 592.574 38.5717C594.26 39.0339 595.891 39.265 597.468 39.265C598.392 39.265 599.113 39.2106 599.629 39.1018C600.173 38.9659 600.567 38.7892 600.812 38.5717C601.057 38.327 601.179 38.0415 601.179 37.7153C601.179 37.1987 600.894 36.7909 600.323 36.4918C599.752 36.1928 598.99 35.9481 598.039 35.7578C597.114 35.5403 596.095 35.3228 594.98 35.1053C593.866 34.8606 592.737 34.5479 591.595 34.1673C590.481 33.7867 589.448 33.2837 588.496 32.6584C587.572 32.0331 586.824 31.2175 586.253 30.2115C585.682 29.1784 585.397 27.9006 585.397 26.3781C585.397 24.6109 585.886 23.0068 586.865 21.5659C587.871 20.0978 589.352 18.9287 591.31 18.0587C593.295 17.1887 595.755 16.7537 598.691 16.7537C600.622 16.7537 602.525 16.9576 604.401 17.3654C606.277 17.7733 607.962 18.3986 609.458 19.2414L606.562 26.215C605.148 25.5081 603.775 24.9779 602.443 24.6245C601.138 24.2711 599.86 24.0943 598.61 24.0943C597.685 24.0943 596.951 24.1759 596.408 24.339C595.864 24.5022 595.47 24.7197 595.225 24.9915C595.007 25.2634 594.899 25.5625 594.899 25.8887C594.899 26.3781 595.184 26.7723 595.755 27.0714C596.326 27.3433 597.074 27.5743 597.998 27.7647C598.95 27.955 599.983 28.1589 601.097 28.3764C602.239 28.5939 603.368 28.8929 604.482 29.2736C605.597 29.6542 606.617 30.1572 607.541 30.7825C608.492 31.4078 609.254 32.2234 609.825 33.2293C610.396 34.2353 610.681 35.4859 610.681 36.9812C610.681 38.7212 610.178 40.3253 609.172 41.7934C608.193 43.2343 606.725 44.4034 604.768 45.3006C602.81 46.1706 600.35 46.6056 597.386 46.6056Z" fill="#FFA37B"></path><path d="M625.004 46.6056C622.612 46.6056 620.301 46.3337 618.072 45.79C615.842 45.2462 614.007 44.5393 612.566 43.6693L615.666 36.655C617.025 37.4434 618.534 38.0823 620.192 38.5717C621.878 39.0339 623.509 39.265 625.086 39.265C626.01 39.265 626.731 39.2106 627.247 39.1018C627.791 38.9659 628.185 38.7892 628.43 38.5717C628.675 38.327 628.797 38.0415 628.797 37.7153C628.797 37.1987 628.512 36.7909 627.941 36.4918C627.37 36.1928 626.609 35.9481 625.657 35.7578C624.733 35.5403 623.713 35.3228 622.598 35.1053C621.484 34.8606 620.355 34.5479 619.214 34.1673C618.099 33.7867 617.066 33.2837 616.114 32.6584C615.19 32.0331 614.442 31.2175 613.871 30.2115C613.3 29.1784 613.015 27.9006 613.015 26.3781C613.015 24.6109 613.504 23.0068 614.483 21.5659C615.489 20.0978 616.971 18.9287 618.928 18.0587C620.913 17.1887 623.373 16.7537 626.309 16.7537C628.24 16.7537 630.143 16.9576 632.019 17.3654C633.895 17.7733 635.58 18.3986 637.076 19.2414L634.18 26.215C632.767 25.5081 631.394 24.9779 630.061 24.6245C628.756 24.2711 627.479 24.0943 626.228 24.0943C625.304 24.0943 624.569 24.1759 624.026 24.339C623.482 24.5022 623.088 24.7197 622.843 24.9915C622.626 25.2634 622.517 25.5625 622.517 25.8887C622.517 26.3781 622.802 26.7723 623.373 27.0714C623.944 27.3433 624.692 27.5743 625.616 27.7647C626.568 27.955 627.601 28.1589 628.716 28.3764C629.857 28.5939 630.986 28.8929 632.1 29.2736C633.215 29.6542 634.235 30.1572 635.159 30.7825C636.111 31.4078 636.872 32.2234 637.443 33.2293C638.014 34.2353 638.299 35.4859 638.299 36.9812C638.299 38.7212 637.796 40.3253 636.79 41.7934C635.812 43.2343 634.343 44.4034 632.386 45.3006C630.428 46.1706 627.968 46.6056 625.004 46.6056Z" fill="#FFA37B"></path><path d="M656.986 46.6056C654.648 46.6056 652.487 46.2386 650.502 45.5045C648.545 44.7704 646.845 43.7373 645.404 42.4051C643.963 41.0458 642.835 39.4553 642.02 37.6337C641.231 35.8122 640.837 33.8275 640.837 31.6797C640.837 29.5047 641.231 27.52 642.02 25.7256C642.835 23.904 643.963 22.3272 645.404 20.995C646.845 19.6356 648.545 18.5889 650.502 17.8548C652.487 17.1208 654.635 16.7537 656.945 16.7537C659.284 16.7537 661.431 17.1208 663.389 17.8548C665.346 18.5889 667.046 19.6356 668.487 20.995C669.927 22.3272 671.042 23.904 671.831 25.7256C672.646 27.52 673.054 29.5047 673.054 31.6797C673.054 33.8275 672.646 35.8122 671.831 37.6337C671.042 39.4553 669.927 41.0458 668.487 42.4051C667.046 43.7373 665.346 44.7704 663.389 45.5045C661.431 46.2386 659.297 46.6056 656.986 46.6056ZM656.945 38.8164C657.843 38.8164 658.672 38.6533 659.433 38.327C660.222 38.0008 660.901 37.5386 661.472 36.9404C662.07 36.3151 662.532 35.5675 662.859 34.6975C663.185 33.8003 663.348 32.7943 663.348 31.6797C663.348 30.565 663.185 29.5726 662.859 28.7026C662.532 27.8054 662.07 27.0578 661.472 26.4597C660.901 25.8343 660.222 25.3586 659.433 25.0323C658.672 24.7061 657.843 24.5429 656.945 24.5429C656.048 24.5429 655.205 24.7061 654.417 25.0323C653.656 25.3586 652.976 25.8343 652.378 26.4597C651.807 27.0578 651.358 27.8054 651.032 28.7026C650.706 29.5726 650.543 30.565 650.543 31.6797C650.543 32.7943 650.706 33.8003 651.032 34.6975C651.358 35.5675 651.807 36.3151 652.378 36.9404C652.976 37.5386 653.656 38.0008 654.417 38.327C655.205 38.6533 656.048 38.8164 656.945 38.8164Z" fill="#FFA37B"></path><path d="M439.88 89.4531V60.9062H453.949C457.13 60.9062 459.931 61.4907 462.35 62.6598C464.77 63.8017 466.659 65.4329 468.019 67.5536C469.378 69.6742 470.058 72.2026 470.058 75.1389C470.058 78.1023 469.378 80.6579 468.019 82.8057C466.659 84.9264 464.77 86.5712 462.35 87.7403C459.931 88.8822 457.13 89.4531 453.949 89.4531H439.88ZM449.504 81.9493H453.541C454.901 81.9493 456.084 81.6911 457.089 81.1745C458.123 80.6579 458.925 79.8967 459.496 78.8907C460.066 77.8576 460.352 76.607 460.352 75.1389C460.352 73.6979 460.066 72.4745 459.496 71.4686C458.925 70.4626 458.123 69.7014 457.089 69.1848C456.084 68.6682 454.901 68.41 453.541 68.41H449.504V81.9493Z" fill="#FFA37B"></path><path d="M483.196 71.5093H495.92V78.4422H483.196V71.5093ZM483.849 82.194H498.122V89.4531H474.388V60.9062H497.592V68.1653H483.849V82.194Z" fill="#FFA37B"></path><path d="M524.657 89.4531L512.586 60.9062H522.944L532.772 85.0079H526.614L536.728 60.9062H546.189L534.118 89.4531H524.657Z" fill="#FFA37B"></path><path d="M556.772 71.5093H569.495V78.4422H556.772V71.5093ZM557.424 82.194H571.698V89.4531H547.963V60.9062H571.167V68.1653H557.424V82.194Z" fill="#FFA37B"></path><path d="M576.218 89.4531V60.9062H584.13L598.648 78.279H594.978V60.9062H604.357V89.4531H596.446L581.928 72.0803H585.598V89.4531H576.218Z" fill="#FFA37B"></path><path d="M609.81 89.4531V60.9062H623.88C627.061 60.9062 629.861 61.4907 632.281 62.6598C634.7 63.8017 636.59 65.4329 637.949 67.5536C639.309 69.6742 639.988 72.2026 639.988 75.1389C639.988 78.1023 639.309 80.6579 637.949 82.8057C636.59 84.9264 634.7 86.5712 632.281 87.7403C629.861 88.8822 627.061 89.4531 623.88 89.4531H609.81ZM619.434 81.9493H623.472C624.831 81.9493 626.014 81.6911 627.02 81.1745C628.053 80.6579 628.855 79.8967 629.426 78.8907C629.997 77.8576 630.282 76.607 630.282 75.1389C630.282 73.6979 629.997 72.4745 629.426 71.4686C628.855 70.4626 628.053 69.7014 627.02 69.1848C626.014 68.6682 624.831 68.41 623.472 68.41H619.434V81.9493Z" fill="#FFA37B"></path><path d="M640.82 89.4531L653.299 60.9062H662.761L675.24 89.4531H665.289L656.073 65.4737H659.825L650.608 89.4531H640.82ZM648.243 84.4778L650.69 77.545H663.821L666.268 84.4778H648.243Z" fill="#FFA37B"></path><path d="M688.235 90.1056C685.843 90.1056 683.532 89.8337 681.303 89.29C679.073 88.7462 677.238 88.0393 675.797 87.1693L678.896 80.155C680.256 80.9434 681.765 81.5823 683.423 82.0717C685.109 82.5339 686.74 82.765 688.317 82.765C689.241 82.765 689.962 82.7106 690.478 82.6018C691.022 82.4659 691.416 82.2892 691.661 82.0717C691.906 81.827 692.028 81.5415 692.028 81.2153C692.028 80.6987 691.743 80.2909 691.172 79.9918C690.601 79.6928 689.839 79.4481 688.888 79.2578C687.963 79.0403 686.944 78.8228 685.829 78.6053C684.715 78.3606 683.586 78.0479 682.444 77.6673C681.33 77.2867 680.297 76.7837 679.345 76.1584C678.421 75.5331 677.673 74.7175 677.102 73.7115C676.531 72.6784 676.246 71.4006 676.246 69.8781C676.246 68.1109 676.735 66.5068 677.714 65.0659C678.72 63.5978 680.201 62.4287 682.159 61.5587C684.144 60.6887 686.604 60.2537 689.54 60.2537C691.471 60.2537 693.374 60.4576 695.25 60.8654C697.126 61.2732 698.811 61.8986 700.307 62.7414L697.411 69.715C695.997 69.0081 694.624 68.4779 693.292 68.1245C691.987 67.7711 690.709 67.5943 689.459 67.5943C688.534 67.5943 687.8 67.6759 687.257 67.839C686.713 68.0022 686.319 68.2197 686.074 68.4915C685.856 68.7634 685.748 69.0625 685.748 69.3887C685.748 69.8781 686.033 70.2723 686.604 70.5714C687.175 70.8433 687.923 71.0743 688.847 71.2647C689.799 71.455 690.832 71.6589 691.946 71.8764C693.088 72.0939 694.217 72.3929 695.331 72.7736C696.446 73.1542 697.465 73.6572 698.39 74.2825C699.341 74.9078 700.103 75.7234 700.674 76.7293C701.245 77.7353 701.53 78.9859 701.53 80.4812C701.53 82.2212 701.027 83.8253 700.021 85.2934C699.042 86.7343 697.574 87.9034 695.617 88.8006C693.659 89.6706 691.199 90.1056 688.235 90.1056Z" fill="#FFA37B"></path><path fill-rule="evenodd" clip-rule="evenodd" d="M399.891 14.3728C396.536 13.7365 394 10.7894 394 7.25C394 3.24594 397.246 0 401.25 0C405.254 0 408.5 3.24594 408.5 7.25C408.5 10.7894 405.964 13.7365 402.609 14.3728V92.8906C402.609 104.152 411.739 113.281 423 113.281H716.625C727.886 113.281 737.016 104.152 737.016 92.8906V14.3728C733.661 13.7365 731.125 10.7894 731.125 7.25C731.125 3.24594 734.371 0 738.375 0C742.379 0 745.625 3.24594 745.625 7.25C745.625 10.7894 743.089 13.7365 739.734 14.3728V92.8906C739.734 105.654 729.388 116 716.625 116H423C410.237 116 399.891 105.654 399.891 92.8906V14.3728Z" fill="#FFA37B"></path><path d="M3.12738 116V104.962H7.66859C8.64622 104.962 9.48193 105.12 10.1757 105.435C10.88 105.751 11.4214 106.203 11.7998 106.791C12.1783 107.38 12.3675 108.079 12.3675 108.889C12.3675 109.698 12.1783 110.397 11.7998 110.986C11.4214 111.564 10.88 112.011 10.1757 112.326C9.48193 112.631 8.64622 112.783 7.66859 112.783H4.26268L5.17723 111.853V116H3.12738ZM10.3492 116L7.55822 111.995H9.74998L12.5567 116H10.3492ZM5.17723 112.074L4.26268 111.096H7.57398C8.47802 111.096 9.15605 110.902 9.60807 110.513C10.0706 110.124 10.3019 109.582 10.3019 108.889C10.3019 108.184 10.0706 107.643 9.60807 107.264C9.15605 106.886 8.47802 106.697 7.57398 106.697H4.26268L5.17723 105.688V112.074ZM16.8684 109.551H22.3557V111.238H16.8684V109.551ZM17.0261 114.281H23.2545V116H14.9763V104.962H23.0338V106.681H17.0261V114.281ZM25.855 116V104.962H27.5422L34.4644 113.461H33.6287V104.962H35.6628V116H33.9756L27.0534 107.501H27.8891V116H25.855ZM38.9358 116V104.962H43.7608C44.9592 104.962 46.0104 105.194 46.9144 105.656C47.8185 106.119 48.5228 106.76 49.0274 107.58C49.532 108.4 49.7842 109.367 49.7842 110.481C49.7842 111.585 49.532 112.552 49.0274 113.382C48.5228 114.202 47.8185 114.844 46.9144 115.306C46.0104 115.769 44.9592 116 43.7608 116H38.9358ZM40.9856 114.266H43.6662C44.4967 114.266 45.2115 114.108 45.8107 113.792C46.4204 113.477 46.8882 113.036 47.214 112.468C47.5504 111.9 47.7186 111.238 47.7186 110.481C47.7186 109.714 47.5504 109.052 47.214 108.494C46.8882 107.927 46.4204 107.485 45.8107 107.17C45.2115 106.854 44.4967 106.697 43.6662 106.697H40.9856V114.266ZM50.5633 116L55.5302 104.962H57.5486L62.5313 116H60.3868L56.1137 106.05H56.9336L52.6762 116H50.5633ZM52.8497 113.446L53.4015 111.837H59.3619L59.9138 113.446H52.8497ZM70.7999 110.04H76.303V111.774H70.7999V110.04ZM70.9734 116H68.9235V104.962H76.981V106.681H70.9734V116ZM77.2404 116L82.2073 104.962H84.2256L89.2084 116H87.0639L82.7907 106.05H83.6107L79.3533 116H77.2404ZM79.5267 113.446L80.0786 111.837H86.039L86.5908 113.446H79.5267ZM90.9274 116V104.962H92.6146L97.4397 113.02H96.5567L101.303 104.962H102.99L103.006 116H101.066L101.051 108.006H101.461L97.4239 114.739H96.5094L92.4096 108.006H92.8827V116H90.9274ZM106.303 116V104.962H108.352V116H106.303ZM111.653 116V104.962H113.703V114.266H119.474V116H111.653ZM121.408 116V104.962H123.458V116H121.408ZM125.198 116L130.165 104.962H132.183L137.166 116H135.021L130.748 106.05H131.568L127.311 116H125.198ZM127.484 113.446L128.036 111.837H133.996L134.548 113.446H127.484ZM138.885 116V104.962H143.426C144.404 104.962 145.239 105.12 145.933 105.435C146.637 105.751 147.179 106.203 147.557 106.791C147.936 107.38 148.125 108.079 148.125 108.889C148.125 109.698 147.936 110.397 147.557 110.986C147.179 111.564 146.637 112.011 145.933 112.326C145.239 112.631 144.404 112.783 143.426 112.783H140.02L140.935 111.853V116H138.885ZM146.106 116L143.316 111.995H145.507L148.314 116H146.106ZM140.935 112.074L140.02 111.096H143.331C144.235 111.096 144.913 110.902 145.365 110.513C145.828 110.124 146.059 109.582 146.059 108.889C146.059 108.184 145.828 107.643 145.365 107.264C144.913 106.886 144.235 106.697 143.331 106.697H140.02L140.935 105.688V112.074ZM153.846 116L158.813 104.962H160.831L165.814 116H163.669L159.396 106.05H160.216L155.959 116H153.846ZM156.132 113.446L156.684 111.837H162.644L163.196 113.446H156.132ZM172.206 116V104.962H176.747C177.725 104.962 178.56 105.12 179.254 105.435C179.959 105.751 180.5 106.203 180.878 106.791C181.257 107.38 181.446 108.079 181.446 108.889C181.446 109.698 181.257 110.397 180.878 110.986C180.5 111.574 179.959 112.026 179.254 112.342C178.56 112.657 177.725 112.815 176.747 112.815H173.341L174.256 111.853V116H172.206ZM174.256 112.074L173.341 111.08H176.653C177.557 111.08 178.235 110.891 178.687 110.513C179.149 110.124 179.38 109.582 179.38 108.889C179.38 108.184 179.149 107.643 178.687 107.264C178.235 106.886 177.557 106.697 176.653 106.697H173.341L174.256 105.688V112.074ZM181.693 116L186.66 104.962H188.678L193.661 116H191.517L187.243 106.05H188.063L183.806 116H181.693ZM183.979 113.446L184.531 111.837H190.492L191.044 113.446H183.979ZM195.38 116V104.962H199.921C200.899 104.962 201.735 105.12 202.428 105.435C203.133 105.751 203.674 106.203 204.053 106.791C204.431 107.38 204.62 108.079 204.62 108.889C204.62 109.698 204.431 110.397 204.053 110.986C203.674 111.564 203.133 112.011 202.428 112.326C201.735 112.631 200.899 112.783 199.921 112.783H196.515L197.43 111.853V116H195.38ZM202.602 116L199.811 111.995H202.003L204.809 116H202.602ZM197.43 112.074L196.515 111.096H199.827C200.731 111.096 201.409 110.902 201.861 110.513C202.323 110.124 202.555 109.582 202.555 108.889C202.555 108.184 202.323 107.643 201.861 107.264C201.409 106.886 200.731 106.697 199.827 106.697H196.515L197.43 105.688V112.074ZM209.314 116V106.697H205.656V104.962H215.022V106.697H211.364V116H209.314ZM216.876 116V104.962H218.926V116H216.876ZM222.227 116V104.962H226.768C227.745 104.962 228.581 105.12 229.275 105.435C229.979 105.751 230.521 106.203 230.899 106.791C231.277 107.38 231.467 108.079 231.467 108.889C231.467 109.698 231.277 110.397 230.899 110.986C230.521 111.564 229.979 112.011 229.275 112.326C228.581 112.631 227.745 112.783 226.768 112.783H223.362L224.276 111.853V116H222.227ZM229.448 116L226.657 111.995H228.849L231.656 116H229.448ZM224.276 112.074L223.362 111.096H226.673C227.577 111.096 228.255 110.902 228.707 110.513C229.17 110.124 229.401 109.582 229.401 108.889C229.401 108.184 229.17 107.643 228.707 107.264C228.255 106.886 227.577 106.697 226.673 106.697H223.362L224.276 105.688V112.074ZM238.749 116V104.962H243.574C244.772 104.962 245.823 105.194 246.727 105.656C247.631 106.119 248.336 106.76 248.84 107.58C249.345 108.4 249.597 109.367 249.597 110.481C249.597 111.585 249.345 112.552 248.84 113.382C248.336 114.202 247.631 114.844 246.727 115.306C245.823 115.769 244.772 116 243.574 116H238.749ZM240.798 114.266H243.479C244.309 114.266 245.024 114.108 245.624 113.792C246.233 113.477 246.701 113.036 247.027 112.468C247.363 111.9 247.531 111.238 247.531 110.481C247.531 109.714 247.363 109.052 247.027 108.494C246.701 107.927 246.233 107.485 245.624 107.17C245.024 106.854 244.309 106.697 243.479 106.697H240.798V114.266ZM253.983 109.551H259.471V111.238H253.983V109.551ZM254.141 114.281H260.369V116H252.091V104.962H260.149V106.681H254.141V114.281ZM267.643 116V104.962H272.184C273.162 104.962 273.998 105.12 274.691 105.435C275.396 105.751 275.937 106.203 276.316 106.791C276.694 107.38 276.883 108.079 276.883 108.889C276.883 109.698 276.694 110.397 276.316 110.986C275.937 111.564 275.396 112.011 274.691 112.326C273.998 112.631 273.162 112.783 272.184 112.783H268.778L269.693 111.853V116H267.643ZM274.865 116L272.074 111.995H274.266L277.072 116H274.865ZM269.693 112.074L268.778 111.096H272.09C272.994 111.096 273.672 110.902 274.124 110.513C274.586 110.124 274.818 109.582 274.818 108.889C274.818 108.184 274.586 107.643 274.124 107.264C273.672 106.886 272.994 106.697 272.09 106.697H268.778L269.693 105.688V112.074ZM282.425 117.892V103.07H283.718V117.892H282.425ZM282.914 116.158C282.052 116.158 281.226 116.037 280.438 115.795C279.65 115.543 279.024 115.222 278.562 114.833L279.271 113.241C279.713 113.587 280.259 113.877 280.911 114.108C281.563 114.339 282.23 114.455 282.914 114.455C283.492 114.455 283.96 114.392 284.317 114.266C284.674 114.139 284.937 113.971 285.105 113.761C285.274 113.54 285.358 113.293 285.358 113.02C285.358 112.683 285.237 112.415 284.995 112.216C284.753 112.005 284.438 111.842 284.049 111.727C283.67 111.601 283.245 111.485 282.772 111.38C282.309 111.275 281.841 111.154 281.368 111.017C280.906 110.87 280.48 110.686 280.091 110.465C279.713 110.234 279.403 109.929 279.161 109.551C278.919 109.172 278.798 108.689 278.798 108.1C278.798 107.501 278.956 106.954 279.271 106.46C279.597 105.956 280.086 105.556 280.738 105.262C281.4 104.957 282.236 104.805 283.245 104.805C283.907 104.805 284.564 104.889 285.216 105.057C285.868 105.225 286.435 105.467 286.919 105.782L286.272 107.375C285.778 107.081 285.268 106.865 284.743 106.728C284.217 106.581 283.713 106.508 283.229 106.508C282.661 106.508 282.199 106.576 281.841 106.713C281.494 106.849 281.237 107.028 281.069 107.249C280.911 107.469 280.832 107.722 280.832 108.006C280.832 108.342 280.948 108.615 281.179 108.826C281.421 109.025 281.731 109.183 282.109 109.299C282.498 109.414 282.929 109.53 283.402 109.645C283.875 109.751 284.343 109.871 284.806 110.008C285.279 110.145 285.705 110.323 286.083 110.544C286.472 110.765 286.782 111.065 287.013 111.443C287.255 111.821 287.376 112.3 287.376 112.878C287.376 113.467 287.213 114.013 286.887 114.518C286.572 115.012 286.083 115.411 285.421 115.716C284.758 116.011 283.923 116.158 282.914 116.158ZM298.04 116.158C297.125 116.158 296.331 116.021 295.659 115.748C294.986 115.474 294.465 115.091 294.098 114.597C293.73 114.092 293.546 113.503 293.546 112.831C293.546 112.158 293.724 111.59 294.082 111.128C294.439 110.665 294.954 110.313 295.627 110.071C296.3 109.829 297.104 109.709 298.04 109.709C298.975 109.709 299.779 109.829 300.452 110.071C301.135 110.313 301.656 110.67 302.013 111.143C302.381 111.606 302.565 112.168 302.565 112.831C302.565 113.503 302.376 114.092 301.997 114.597C301.629 115.091 301.104 115.474 300.421 115.748C299.748 116.021 298.954 116.158 298.04 116.158ZM298.04 114.549C298.796 114.549 299.396 114.392 299.837 114.076C300.279 113.761 300.499 113.325 300.499 112.768C300.499 112.221 300.279 111.79 299.837 111.475C299.396 111.159 298.796 111.002 298.04 111.002C297.283 111.002 296.689 111.159 296.258 111.475C295.827 111.79 295.611 112.221 295.611 112.768C295.611 113.325 295.827 113.761 296.258 114.076C296.689 114.392 297.283 114.549 298.04 114.549ZM298.04 110.781C297.188 110.781 296.457 110.67 295.848 110.45C295.238 110.218 294.765 109.887 294.429 109.456C294.103 109.015 293.94 108.489 293.94 107.879C293.94 107.249 294.108 106.707 294.444 106.255C294.791 105.793 295.275 105.435 295.895 105.183C296.515 104.931 297.23 104.805 298.04 104.805C298.859 104.805 299.58 104.931 300.2 105.183C300.82 105.435 301.304 105.793 301.65 106.255C301.997 106.707 302.171 107.249 302.171 107.879C302.171 108.489 302.003 109.015 301.666 109.456C301.34 109.887 300.867 110.218 300.247 110.45C299.627 110.67 298.891 110.781 298.04 110.781ZM298.04 109.519C298.691 109.519 299.206 109.383 299.585 109.109C299.963 108.826 300.152 108.447 300.152 107.974C300.152 107.48 299.958 107.096 299.569 106.823C299.18 106.55 298.67 106.413 298.04 106.413C297.409 106.413 296.904 106.55 296.526 106.823C296.147 107.096 295.958 107.48 295.958 107.974C295.958 108.447 296.142 108.826 296.51 109.109C296.888 109.383 297.398 109.519 298.04 109.519ZM309.672 116V104.962H311.359L316.184 113.02H315.301L320.047 104.962H321.734L321.75 116H319.811L319.795 108.006H320.205L316.168 114.739H315.254L311.154 108.006H311.627V116H309.672ZM325.047 116V104.962H327.097V116H325.047ZM330.398 116V104.962H332.448V114.266H338.219V116H330.398Z" fill="white"></path></svg>